<svg width="580" height="400" xmlns="http://www.w3.org/2000/svg">
 <!-- Created with Method Draw - http://github.com/duopixel/Method-Draw/ -->
 <g>
  <title>background</title>
  <rect fill="#fff" id="canvas_background" height="402" width="582" y="-1" x="-1"/>
  <g display="none" overflow="visible" y="0" x="0" height="100%" width="100%" id="canvasGrid">
   <rect fill="url(#gridpattern)" stroke-width="0" y="0" x="0" height="100%" width="100%"/>
  </g>
 </g>
 <g>
  <title>Layer 1</title>
  <rect height="0" id="svg_2" width="19" y="258.166496" x="36.666671" stroke-width="1.5" stroke="#000" fill="#fff"/>
  <rect y="1.990805" id="svg_58" height="28.83172" width="28.665264" x="452.388094" stroke-width="1.5" stroke="#000" fill="#fff"/>
  <rect y="1.990804" id="svg_59" height="28.83172" width="28.665264" x="392.379304" stroke-width="1.5" stroke="#000" fill="#fff"/>
  <rect y="1.990805" id="svg_60" height="28.83172" width="28.665264" x="332.370515" stroke-width="1.5" stroke="#000" fill="#fff"/>
  <rect y="1.990805" id="svg_61" height="28.83172" width="28.665264" x="273.028489" stroke-width="1.5" stroke="#000" fill="#fff"/>
  <rect y="1.990805" id="svg_62" height="28.83172" width="28.665264" x="212.68632" stroke-width="1.5" stroke="#000" fill="#fff"/>
  <rect y="1.990806" id="svg_63" height="28.83172" width="28.665264" x="152.344148" stroke-width="1.5" stroke="#000" fill="#fff"/>
  <rect y="1.990805" id="svg_64" height="28.83172" width="28.665264" x="92.335358" stroke-width="1.5" stroke="#000" fill="#fff"/>
  <rect y="1.990805" id="svg_68" height="28.83172" width="28.665264" x="31.993186" stroke-width="1.5" stroke="#000" fill="#fff"/>
  <g id="svg_80">
   <g id="svg_70"/>
   <g id="svg_73">
    <rect y="91.655324" id="svg_71" height="28.83172" width="28.665264" x="305.983229" stroke-width="1.5" stroke="#000" fill="#fff"/>
    <rect y="84.988901" id="svg_72" height="28.83172" width="28.665264" x="299.316806" stroke-width="1.5" stroke="#000" fill="#fff"/>
   </g>
   <g id="svg_79">
    <rect y="91.655318" id="svg_77" height="28.83172" width="28.665264" x="427.645449" stroke-width="1.5" stroke="#000" fill="#fff"/>
    <rect y="84.988895" id="svg_78" height="28.83172" width="28.665264" x="420.979027" stroke-width="1.5" stroke="#000" fill="#fff"/>
   </g>
  </g>
  <g id="svg_100">
   <g id="svg_92">
    <rect y="91.655317" id="svg_90" height="28.83172" width="28.665264" x="187.3209" stroke-width="1.5" stroke="#000" fill="#fff"/>
    <rect y="84.988894" id="svg_91" height="28.83172" width="28.665264" x="180.654477" stroke-width="1.5" stroke="#000" fill="#fff"/>
   </g>
   <g id="svg_96">
    <rect y="91.655323" id="svg_94" height="28.83172" width="28.665264" x="65.658679" stroke-width="1.5" stroke="#000" fill="#fff"/>
    <rect y="84.9889" id="svg_95" height="28.83172" width="28.665264" x="58.992256" stroke-width="1.5" stroke="#000" fill="#fff"/>
   </g>
  </g>
  <g id="svg_101">
   <g id="svg_86">
    <rect y="228.322775" id="svg_84" height="28.83172" width="28.665264" x="384.993885" stroke-width="1.5" stroke="#000" fill="#fff"/>
    <rect y="221.656352" id="svg_85" height="28.83172" width="28.665264" x="378.327462" stroke-width="1.5" stroke="#000" fill="#fff"/>
   </g>
   <g id="svg_99">
    <rect y="214.989363" id="svg_97" height="28.83172" width="28.665264" x="371.660473" stroke-width="1.5" stroke="#000" fill="#fff"/>
    <rect y="208.322941" id="svg_98" height="28.83172" width="28.665264" x="364.994051" stroke-width="1.5" stroke="#000" fill="#fff"/>
   </g>
  </g>
  <path id="svg_109" d="m-209.81514,81.593704l-0.423752,0.423714l0.423752,0.423714l-0.242172,0.242287l-0.665894,-0.666l0.665894,-0.666061" fill-opacity="null" stroke-opacity="null" stroke-width="1.5" stroke="#000" fill="#fff"/>
  <path transform="rotate(90.6817, 435.999, 56.5207)" id="svg_111" d="m452.131531,50.825043l-5.280457,-5.696541l0,6.338692l-9.476318,0c-1.659241,0.231522 -4.523926,-3.284126 -7.709167,-7.948952c-3.207214,-4.424591 -6.872986,-9.853806 -11.780975,-9.999283l-3.302307,0l0,10.104706l3.302307,0c2.403595,-0.130692 5.367645,3.39975 8.523285,7.955055c1.176208,1.591385 2.362701,3.346817 3.619568,4.932281c-1.256866,1.587128 -2.441895,3.344864 -3.619568,4.936127c-3.15564,4.542831 -6.11969,8.081451 -8.520325,7.952972l-3.305267,0l0,10.1194l3.303558,0c4.897705,-0.128632 8.56488,-5.572327 11.782654,-9.990921c3.185486,-4.665024 6.048706,-8.182556 7.709412,-7.954987l9.473145,0l0,6.338364l5.280457,-5.690125l5.283386,-5.694122l-5.283386,-5.702667l0,0z" fill-opacity="null" stroke-opacity="null" stroke-width="1.5" stroke="#000" fill="#fff"/>
  <path transform="rotate(90.6817, 379.114, 161.846)" id="svg_114" d="m407.552155,149.392212l-9.308472,-12.45993l0,13.864594l-16.704865,0c-2.924835,0.506378 -7.974762,-7.183502 -13.589813,-17.38681c-5.653687,-9.677864 -12.115784,-21.553123 -20.767456,-21.871391l-5.821472,0l0,22.101952l5.821472,0c4.236908,-0.285889 9.462067,7.436401 15.02475,17.400177c2.073395,3.480835 4.164978,7.320435 6.380676,10.788361c-2.215698,3.471466 -4.304596,7.316071 -6.380676,10.796692c-5.562683,9.936462 -10.787842,17.676636 -15.019623,17.395569l-5.826599,0l0,22.13324l5.823608,0c8.633698,-0.279999 15.098206,-12.187622 20.770569,-21.852173c5.615295,-10.203949 10.66272,-17.897736 13.590179,-17.399902l16.699249,0l0,13.863678l9.308472,-12.445892l9.313446,-12.454681l-9.313446,-12.47348l0,0z" fill-opacity="null" stroke-opacity="null" stroke-width="1.5" stroke="#000" fill="#fff"/>
  <path transform="rotate(90.6817, 73.9968, 56.5181)" id="svg_117" d="m90.129471,50.822395l-5.280502,-5.696503l0,6.338707l-9.476295,0c-1.659203,0.231499 -4.523903,-3.284203 -7.709198,-7.949005c-3.207207,-4.424599 -6.873005,-9.853798 -11.780903,-9.999298l-3.302399,0l0,10.104698l3.302399,0c2.4035,-0.130699 5.367599,3.399803 8.523197,7.955101c1.176201,1.5914 2.362701,3.346802 3.619606,4.932304c-1.256905,1.587097 -2.441902,3.344795 -3.619606,4.936096c-3.155598,4.542801 -6.119698,8.081497 -8.520298,7.953003l-3.305298,0l0,10.118996l3.303596,0c4.897701,-0.127998 8.564899,-5.571999 11.782703,-9.990501c3.185402,-4.6651 6.048698,-8.182594 7.709396,-7.954994l9.473099,0l0,6.338295l5.280502,-5.690102l5.283302,-5.694099l-5.283302,-5.702698l0,0z" fill-opacity="null" stroke-opacity="null" stroke-width="1.5" stroke="#000" fill="#fff"/>
  <path transform="rotate(90.6817, 193.331, 56.5194)" id="svg_118" d="m209.463486,50.82373l-5.280472,-5.696541l0,6.338692l-9.476334,0c-1.65921,0.231522 -4.523895,-3.284126 -7.709137,-7.948952c-3.207245,-4.424591 -6.873016,-9.853806 -11.780991,-9.999283l-3.302307,0l0,10.104706l3.302307,0c2.40358,-0.130692 5.36763,3.39975 8.5233,7.955055c1.176193,1.591385 2.362686,3.346817 3.619537,4.932281c-1.256851,1.587128 -2.441895,3.344864 -3.619537,4.936127c-3.15567,4.542831 -6.11972,8.081451 -8.520325,7.952972l-3.305283,0l0,10.1194l3.303543,0c4.897705,-0.128632 8.564911,-5.572327 11.782684,-9.990921c3.185455,-4.665024 6.048676,-8.182556 7.709412,-7.954987l9.473129,0l0,6.338364l5.280472,-5.690125l5.283356,-5.694122l-5.283356,-5.702667l0,0z" fill-opacity="null" stroke-opacity="null" stroke-width="1.5" stroke="#000" fill="#fff"/>
  <path transform="rotate(90.6817, 318.665, 56.5194)" id="svg_119" d="m334.797516,50.82373l-5.280457,-5.696541l0,6.338692l-9.476318,0c-1.659241,0.231522 -4.523926,-3.284126 -7.709167,-7.948952c-3.207214,-4.424591 -6.872986,-9.853806 -11.780975,-9.999283l-3.302307,0l0,10.104706l3.302307,0c2.403595,-0.130692 5.367645,3.39975 8.523285,7.955055c1.176208,1.591385 2.362701,3.346817 3.619568,4.932281c-1.256866,1.587128 -2.441895,3.344864 -3.619568,4.936127c-3.15564,4.542831 -6.11969,8.081451 -8.520325,7.952972l-3.305267,0l0,10.1194l3.303558,0c4.897705,-0.128632 8.56488,-5.572327 11.782654,-9.990921c3.185486,-4.665024 6.048706,-8.182556 7.709412,-7.954987l9.473145,0l0,6.338364l5.280457,-5.690125l5.283386,-5.694122l-5.283386,-5.702667l0,0z" fill-opacity="null" stroke-opacity="null" stroke-width="1.5" stroke="#000" fill="#fff"/>
  <g id="svg_127">
   <g id="svg_123">
    <rect y="228.322786" id="svg_121" height="28.83172" width="28.665264" x="137.659099" stroke-width="1.5" stroke="#000" fill="#fff"/>
    <rect y="221.656363" id="svg_122" height="28.83172" width="28.665264" x="130.992676" stroke-width="1.5" stroke="#000" fill="#fff"/>
   </g>
   <g id="svg_126">
    <rect y="214.989375" id="svg_124" height="28.83172" width="28.665264" x="124.325688" stroke-width="1.5" stroke="#000" fill="#fff"/>
    <rect y="208.322952" id="svg_125" height="28.83172" width="28.665264" x="117.659265" stroke-width="1.5" stroke="#000" fill="#fff"/>
   </g>
  </g>
  <g id="svg_135">
   <g id="svg_108">
    <g id="svg_104">
     <rect y="370.323614" id="svg_102" height="28.83172" width="28.665264" x="275.659903" stroke-width="1.5" stroke="#000" fill="#fff"/>
     <rect y="363.657191" id="svg_103" height="28.83172" width="28.665264" x="268.993481" stroke-width="1.5" stroke="#000" fill="#fff"/>
    </g>
    <g id="svg_107">
     <rect y="356.990203" id="svg_105" height="28.83172" width="28.665264" x="262.326492" stroke-width="1.5" stroke="#000" fill="#fff"/>
     <rect y="350.32378" id="svg_106" height="28.83172" width="28.665264" x="255.660069" stroke-width="1.5" stroke="#000" fill="#fff"/>
    </g>
   </g>
   <g id="svg_134">
    <g id="svg_130">
     <rect y="356.990203" id="svg_128" height="28.83172" width="28.665264" x="262.326492" stroke-width="1.5" stroke="#000" fill="#fff"/>
     <rect y="350.32378" id="svg_129" height="28.83172" width="28.665264" x="255.660069" stroke-width="1.5" stroke="#000" fill="#fff"/>
    </g>
    <g id="svg_133">
     <rect y="343.656791" id="svg_131" height="28.83172" width="28.665264" x="248.993081" stroke-width="1.5" stroke="#000" fill="#fff"/>
     <rect y="336.990369" id="svg_132" height="28.83172" width="28.665264" x="242.326658" stroke-width="1.5" stroke="#000" fill="#fff"/>
    </g>
   </g>
  </g>
  <path transform="rotate(90.6817, 268.835, 294.197)" id="svg_136" d="m295.968903,271.607513l-8.880951,-22.599121l0,25.14682l-15.937592,0c-2.790527,0.918488 -7.60849,-13.028992 -12.965668,-31.535202c-5.394028,-17.553177 -11.559296,-39.091904 -19.813614,-39.669174l-5.554123,0l0,40.087265l5.554123,0c4.042313,-0.518478 9.027466,13.487747 14.334671,31.559616c1.978149,6.313324 3.973694,13.277405 6.087616,19.567291c-2.113922,6.296387 -4.106903,13.269531 -6.087616,19.582428c-5.307205,18.022217 -10.292358,32.060913 -14.329803,31.551117l-5.55899,0l0,40.144073l5.556152,0c8.237137,-0.507782 14.40477,-22.105194 19.81662,-39.634277c5.357361,-18.507355 10.172943,-32.461853 12.965973,-31.55896l15.932251,0l0,25.145203l8.880951,-22.57373l8.885742,-22.589569l-8.885742,-22.623779l0,0z" fill-opacity="null" stroke-opacity="null" stroke-width="1.5" stroke="#000" fill="#fff"/>
  <path transform="rotate(90.6817, 137.113, 161.846)" id="svg_137" d="m165.550766,149.392181l-9.308472,-12.45993l0,13.864594l-16.704865,0c-2.92485,0.506378 -7.974747,-7.183502 -13.589813,-17.38681c-5.653702,-9.677864 -12.115784,-21.553123 -20.767456,-21.871391l-5.821487,0l0,22.101952l5.821487,0c4.236908,-0.285889 9.462051,7.436401 15.02475,17.400177c2.073395,3.480835 4.164978,7.320435 6.380676,10.788361c-2.215698,3.471466 -4.304611,7.316071 -6.380676,10.796692c-5.562698,9.936462 -10.787842,17.676636 -15.019638,17.395569l-5.826599,0l0,22.13324l5.823616,0c8.63369,-0.279999 15.098228,-12.187622 20.770592,-21.852173c5.615265,-10.203949 10.662689,-17.897736 13.590164,-17.399902l16.699249,0l0,13.863678l9.308472,-12.445892l9.313446,-12.454681l-9.313446,-12.47348l0,0z" fill-opacity="null" stroke-opacity="null" stroke-width="1.5" stroke="#000" fill="#fff"/>
 </g>
</svg>